<svg width="150" height="94" viewBox="0 0 150 94" fill="none" xmlns="http://www.w3.org/2000/svg">
<circle cx="82" cy="43" r="7" fill="white"/>
<path d="M135.694 59.0712C135.159 59.6625 134.49 59.9581 133.688 59.9581C132.884 59.9581 132.19 59.6356 131.607 58.9906C131.023 58.3457 130.731 57.5792 130.731 56.6913C130.731 55.8056 131.023 55.0402 131.607 54.3953L142.92 41.8992L131.534 29.3224C130.998 28.7312 130.742 27.9916 130.766 27.1038C130.791 26.218 131.071 25.4795 131.607 24.8883C132.142 24.2971 132.823 24.0015 133.65 24.0015C134.477 24.0015 135.159 24.2971 135.694 24.8883L149.124 39.7224C149.708 40.3674 150 41.1198 150 41.9798C150 42.8397 149.708 43.5922 149.124 44.2371L135.694 59.0712ZM120.306 59.1132L106.876 44.2791C106.292 43.6341 106 42.8816 106 42.0217C106 41.1617 106.292 40.4093 106.876 39.7643L120.306 24.9302C120.841 24.339 121.523 24.0294 122.35 24.0015C123.177 23.9757 123.883 24.2853 124.466 24.9302C125.05 25.5752 125.342 26.3405 125.342 27.2263C125.342 28.1142 125.05 28.8806 124.466 29.5256L113.08 42.1023L124.466 54.6791C125.002 55.2703 125.258 56.0088 125.234 56.8945C125.209 57.7824 124.929 58.522 124.393 59.1132C123.858 59.7044 123.177 60 122.35 60C121.523 60 120.841 59.7044 120.306 59.1132Z" fill="#383838"/>
<path d="M116 47.0171L99.1524 40.7666C97.7162 34.4055 94.1257 30.7547 94.1257 30.7547C91.9764 28.5982 89.4236 26.8874 86.6132 25.72C83.8028 24.5527 80.7902 23.9518 77.7476 23.9518C74.7051 23.9518 71.6924 24.5527 68.882 25.72C66.0717 26.8874 63.5188 28.5982 61.3695 30.7547L53.1943 38.9412L16.5714 0C11.0476 22.1257 16.5714 44.2514 30.1048 62.0626L0 91.2685C0 91.2685 49.1067 102.331 77.72 79.9291C92.9657 67.9812 96.3905 61.0116 98.5448 53.6548L116 47.0171ZM86.779 48.234C84.6248 50.3913 81.0895 50.3913 78.9352 48.234C78.4232 47.7223 78.0169 47.1145 77.7397 46.4453C77.4625 45.7762 77.3198 45.0588 77.3198 44.3344C77.3198 43.6099 77.4625 42.8926 77.7397 42.2235C78.0169 41.5543 78.4232 40.9465 78.9352 40.4347C81.0895 38.2775 84.6248 38.2775 86.779 40.4347C88.9333 42.592 88.9333 46.0768 86.779 48.234Z" fill="#1F9BF0"/>
</svg>
